<?xml version="1.0" encoding="UTF-8" standalone="no"?>
<!-- Created with Inkscape (http://www.inkscape.org/) -->

<svg
   width="500"
   height="190"
   viewBox="0 0 500 190"
   version="1.1"
   id="svg1"
   inkscape:version="1.3.2 (091e20e, 2023-11-25)"
   sodipodi:docname="logo.svg"
   xmlns:inkscape="http://www.inkscape.org/namespaces/inkscape"
   xmlns:sodipodi="http://sodipodi.sourceforge.net/DTD/sodipodi-0.dtd"
   xmlns="http://www.w3.org/2000/svg"
   xmlns:svg="http://www.w3.org/2000/svg">
  <sodipodi:namedview
     id="namedview1"
     pagecolor="#ffffff"
     bordercolor="#000000"
     borderopacity="0.25"
     inkscape:showpageshadow="2"
     inkscape:pageopacity="0.0"
     inkscape:pagecheckerboard="0"
     inkscape:deskcolor="#d1d1d1"
     inkscape:zoom="0.3337544"
     inkscape:cx="353.55339"
     inkscape:cy="95.878885"
     inkscape:window-width="1728"
     inkscape:window-height="1051"
     inkscape:window-x="0"
     inkscape:window-y="34"
     inkscape:window-maximized="0"
     inkscape:current-layer="layer1" />
  <defs
     id="defs1" />
  <g
     inkscape:label="Layer 1"
     inkscape:groupmode="layer"
     id="layer1">
    <path
       style="font-size:144px;font-family:'Gill Sans';-inkscape-font-specification:'Gill Sans';text-align:center;letter-spacing:0.33px;text-anchor:middle;fill:#000000;stroke:none;stroke-width:2.99999;stroke-miterlimit:2"
       d="m 361.42296,38.798036 h 14.21861 V 147.93766 h -14.21861 z"
       id="path9" />
    <path
       style="font-size:144px;font-family:'Gill Sans';-inkscape-font-specification:'Gill Sans';text-align:center;letter-spacing:0.33px;text-anchor:middle;fill:#000000;stroke:none;stroke-width:2.99999;stroke-miterlimit:2"
       d="m 408.14128,76.063319 h 16.95297 l -30.70285,35.234041 36.9528,36.6403 h -19.06234 l -36.01529,-36.6403 z"
       id="path8" />
    <path
       id="path6"
       style="font-size:144px;font-family:'Gill Sans';-inkscape-font-specification:'Gill Sans';text-align:center;letter-spacing:0.33px;text-anchor:middle;fill:#000000;stroke:none;stroke-width:2.99999;stroke-miterlimit:2"
       d="m 307.15053,75.907069 q 16.40609,0 27.26538,10.624905 10.85928,10.54678 10.85928,26.562266 0,15.54672 -11.01552,25.85914 -11.01554,10.23428 -27.73413,10.23428 -16.17173,0 -27.03101,-10.39055 -10.85927,-10.46865 -10.85927,-26.09351 0,-15.7811 10.93739,-26.24975 11.01553,-10.546781 27.57788,-10.546781 z m -0.78125,12.812385 q -10.23428,0 -16.7967,6.718692 -6.56244,6.718694 -6.56244,17.109204 0,10.31241 6.71867,16.87485 6.7187,6.48433 17.26546,6.48433 10.46867,0 17.10923,-6.56244 6.71869,-6.64057 6.71869,-16.95298 0,-10.23427 -6.95306,-16.952964 -6.95306,-6.718692 -17.49985,-6.718692 z" />
    <path
       style="font-size:144px;font-family:'Gill Sans';-inkscape-font-specification:'Gill Sans';text-align:center;letter-spacing:0.33px;text-anchor:middle;fill:#000000;stroke:none;stroke-width:2.99999;stroke-miterlimit:2"
       d="m 244.67506,130.51595 q 3.98433,0 6.79682,2.73434 2.81247,2.73435 2.81247,6.71868 0,3.90623 -2.81247,6.56244 -2.73436,2.65625 -6.79682,2.65625 -3.98434,0 -6.71869,-2.65625 -2.73436,-2.65621 -2.73436,-6.56244 0,-3.98433 2.73436,-6.71868 2.73435,-2.73434 6.71869,-2.73434 z"
       id="path5" />
    <path
       style="font-size:144px;font-family:'Gill Sans';-inkscape-font-specification:'Gill Sans';text-align:center;letter-spacing:0.33px;text-anchor:middle;fill:#000000;stroke:none;stroke-width:2.99999;stroke-miterlimit:2"
       d="m 171.18407,76.063319 v 9.140542 q 9.53116,-10.546779 21.64043,-10.546779 6.71869,0 12.49988,3.515594 5.78119,3.437468 8.74991,9.531163 3.04686,6.015568 3.04686,19.140461 v 41.09336 h -14.21863 v -40.93712 q 0,-11.015531 -3.35933,-15.702985 -3.35937,-4.765581 -11.2499,-4.765581 -10.07804,0 -17.10922,10.078029 V 147.93766 H 156.65295 V 76.063319 Z"
       id="path4" />
    <path
       id="text2"
       style="font-size:144px;font-family:'Gill Sans';-inkscape-font-specification:'Gill Sans';text-align:center;letter-spacing:0.33px;text-anchor:middle;fill:#000000;stroke:none;stroke-width:2.99999;stroke-miterlimit:2;stroke-opacity:0.721264"
       d="m 102.69303,75.907069 q 16.40609,0 27.26537,10.624905 10.85928,10.54678 10.85928,26.562266 0,15.54672 -11.01554,25.85914 -11.01551,10.23428 -27.7341,10.23428 -16.171733,0 -27.03101,-10.39055 -10.859276,-10.46865 -10.859276,-26.09351 0,-15.7811 10.9374,-26.24975 Q 86.130682,75.907069 102.69303,75.907069 Z M 78.552622,112.54735 c 0,6.87494 2.239563,12.49989 6.71869,16.87485 4.479121,4.32288 10.234275,6.48433 17.265458,6.48433 6.97911,0 12.68219,-2.18748 17.10923,-6.56244 4.47912,-4.42705 6.71869,-10.07804 6.71869,-16.95298 0,-6.82285 -2.31769,-12.473835 -6.95307,-16.952964 -4.63537,-4.479128 -10.46865,-6.718692 -17.49984,-6.718692 -6.822855,0 -12.421762,2.239564 -16.796722,6.718692 -4.374957,4.479129 -6.562436,10.182194 -6.562436,17.109204" />
  </g>
</svg>
